<?xml version="1.0" standalone="no"?>
<!DOCTYPE svg PUBLIC "-//W3C//DTD SVG 20010904//EN"
 "http://www.w3.org/TR/2001/REC-SVG-20010904/DTD/svg10.dtd">
<svg version="1.0" xmlns="http://www.w3.org/2000/svg"
 width="1280.000000pt" height="946.000000pt" viewBox="0 0 1280.000000 946.000000"
 preserveAspectRatio="xMidYMid meet">
<metadata>
Created by potrace 1.15, written by Peter Selinger 2001-2017
</metadata>
<g transform="translate(0.000000,946.000000) scale(0.100000,-0.100000)"
fill="#000000" stroke="none">
<path d="M3267 9014 c-204 -44 -300 -143 -343 -354 -22 -109 -15 -266 16 -365
42 -133 130 -278 159 -261 6 4 20 39 32 79 26 89 39 104 98 113 67 10 75 16
115 99 22 43 50 84 67 96 28 20 29 22 29 112 0 146 30 166 166 108 124 -53
297 -77 337 -47 25 20 37 69 26 110 -5 19 -30 60 -55 93 -25 32 -58 81 -74
108 -40 69 -77 102 -130 114 -68 16 -362 12 -443 -5z"/>
<path d="M2695 7745 c-127 -34 -421 -133 -475 -160 -96 -49 -159 -135 -269
-367 -92 -193 -141 -360 -141 -480 0 -118 45 -421 69 -466 10 -19 9 -27 -7
-50 -11 -15 -30 -36 -42 -47 -45 -39 -80 -97 -80 -131 0 -26 8 -39 39 -65 22
-17 42 -37 45 -45 3 -7 1 -48 -4 -91 -8 -70 -5 -95 25 -243 67 -331 97 -440
123 -440 27 0 294 57 326 69 16 7 30 10 31 9 1 -2 8 -50 14 -107 22 -184 70
-340 123 -398 l20 -22 -38 -10 c-148 -39 -307 -72 -314 -65 -4 5 -15 40 -25
77 -10 37 -22 64 -27 59 -16 -16 -38 -148 -38 -237 0 -175 45 -472 119 -780
38 -158 39 -164 45 -410 5 -208 9 -263 26 -329 24 -89 21 -110 -19 -176 -64
-106 -63 -90 -61 -588 1 -429 0 -455 -18 -485 -11 -18 -23 -45 -26 -61 -4 -16
-20 -48 -36 -71 -26 -37 -35 -43 -77 -49 -72 -10 -111 -25 -130 -49 -43 -52
-82 -75 -140 -82 -161 -17 -209 -27 -231 -48 -44 -41 -53 -140 -27 -289 8 -47
28 -197 45 -333 35 -282 48 -324 143 -467 61 -92 160 -196 194 -204 55 -14 83
18 83 97 0 57 -35 197 -55 219 -8 9 -15 31 -15 48 0 38 53 155 108 240 40 62
101 205 138 324 13 42 23 58 35 58 10 0 21 5 24 10 9 15 75 -87 92 -140 11
-35 11 -56 2 -98 -12 -60 -6 -102 15 -102 20 0 32 -121 17 -169 -6 -20 -14
-101 -17 -181 l-6 -145 48 -52 c54 -57 92 -72 243 -98 109 -19 280 -20 326 -1
79 33 74 129 -12 237 -29 36 -43 67 -122 268 -40 102 -40 103 -21 120 20 16
20 17 -5 89 -13 40 -30 82 -36 94 -17 32 -25 453 -9 483 6 12 19 67 28 122
l17 99 325 303 c472 440 501 470 570 573 112 166 207 381 234 527 51 269 38
789 -33 1391 -10 85 -17 156 -15 158 1 2 12 -2 24 -8 12 -6 24 -9 27 -6 14 14
-13 82 -61 155 -83 124 -93 199 -51 379 31 136 46 274 36 332 -5 25 -29 89
-55 143 -61 129 -75 187 -52 219 9 13 28 39 42 58 l26 35 -6 -50 c-18 -161
-19 -204 -1 -253 38 -106 123 -182 203 -182 94 0 205 78 257 180 32 64 65 188
65 248 l0 45 -21 -27 c-24 -31 -43 -32 -132 -7 -72 20 -107 43 -107 71 0 27
98 220 146 287 25 35 54 67 64 73 12 6 20 21 20 35 0 32 33 65 63 65 29 0 57
-29 57 -57 0 -11 6 -34 13 -51 l13 -31 52 121 c38 87 49 124 43 136 -5 10 -56
37 -113 62 l-103 46 4 169 c3 161 2 174 -23 247 -50 151 -80 201 -144 243 -31
21 -157 107 -279 191 -122 85 -224 154 -227 154 -3 0 -6 -19 -6 -42 -1 -64
-16 -117 -40 -143 -12 -13 -57 -38 -99 -55 l-78 -31 -43 -81 c-36 -67 -45 -78
-51 -62 -89 220 -87 218 -253 284 -182 72 -182 72 -189 168 -5 82 -19 122 -40
122 -7 -1 -52 -12 -102 -25z m363 -4521 l59 -230 -18 -35 c-10 -19 -18 -48
-19 -65 0 -40 -73 -151 -113 -173 -16 -9 -51 -33 -78 -54 -52 -40 -61 -35 -30
17 13 21 20 59 24 121 6 102 14 129 50 167 36 38 47 106 54 318 4 102 8 181 9
175 2 -5 30 -114 62 -241z"/>
</g>
</svg>
